<?xml version="1.0" encoding="UTF-8" standalone="no"?>
<!DOCTYPE svg PUBLIC "-//W3C//DTD SVG 1.1//EN" "http://www.w3.org/Graphics/SVG/1.1/DTD/svg11.dtd">
<svg width="100%" height="100%" viewBox="0 0 300 150" version="1.1" xmlns="http://www.w3.org/2000/svg" xmlns:xlink="http://www.w3.org/1999/xlink" xml:space="preserve" xmlns:serif="http://www.serif.com/" style="fill-rule:evenodd;clip-rule:evenodd;stroke-linejoin:round;stroke-miterlimit:2;">
    <g transform="matrix(1,0,0,1,-480,-192.5)">
        <g>
            <g transform="matrix(0.882353,0,0,1.07143,56.4706,-21.7857)">
                <rect x="480" y="200" width="340" height="140" style="fill:rgb(255,0,0);"/>
            </g>
            <g transform="matrix(0.292969,0,0,0.292969,630,267.5)">
                <g transform="matrix(1,0,0,1,-256,-256)">
                    <rect x="0" y="0" width="512" height="512" style="fill:rgb(255,0,0);fill-rule:nonzero;"/>
                    <path d="M208,96L304,96L304,208L416,208L416,304L304,304L304,416L208,416L208,304L96,304L96,208L208,208L208,96Z" style="fill:white;fill-rule:nonzero;"/>
                </g>
            </g>
        </g>
    </g>
</svg>
